<svg width="24" height="24" viewBox="0 0 24 24" fill="none" xmlns="http://www.w3.org/2000/svg">
<path d="M8 7V3M16 7V3M7 11H17M5 21H19C20.1046 21 21 20.1046 21 19V7C21 5.89543 20.1046 5 19 5H5C3.89543 5 3 5.89543 3 7V19C3 20.1046 3.89543 21 5 21Z" stroke="#4A5568" stroke-width="2" stroke-linecap="round" stroke-linejoin="round"/>
<g transform="rotate(45 12 12)">
  <path d="M10 9L15 14M12 11L14.5 8.5C15.3284 7.67157 15.3284 6.32843 14.5 5.5V5.5C13.6716 4.67157 12.3284 4.67157 11.5 5.5L9 8" stroke="#4A5568" stroke-width="2" stroke-linecap="round" stroke-linejoin="round"/>
  <path d="M8 12L12 16" stroke="#4A5568" stroke-width="2" stroke-linecap="round" stroke-linejoin="round"/>
</g>
</svg> 